<svg xmlns="http://www.w3.org/2000/svg" viewBox="0 0 1024 1024" width="1024" height="1024">
  <!-- Background -->
  <rect width="1024" height="1024" rx="180" fill="#1a1a2e"/>

  <!-- Shield -->
  <path d="M512 160 L760 260 L760 520 C760 670 650 790 512 840 C374 790 264 670 264 520 L264 260 Z"
        fill="#16213e" stroke="#4CAF50" stroke-width="12"/>

  <!-- Document inside shield -->
  <rect x="400" y="310" width="224" height="280" rx="16" fill="#ffffff"/>

  <!-- Document lines -->
  <rect x="428" y="370" width="168" height="14" rx="7" fill="#1a1a2e" opacity="0.15"/>
  <rect x="428" y="400" width="168" height="14" rx="7" fill="#1a1a2e" opacity="0.15"/>
  <rect x="428" y="430" width="120" height="14" rx="7" fill="#1a1a2e" opacity="0.15"/>

  <!-- Divider line -->
  <rect x="428" y="462" width="168" height="2" rx="1" fill="#4CAF50" opacity="0.4"/>

  <!-- Bottom lines -->
  <rect x="428" y="482" width="168" height="10" rx="5" fill="#1a1a2e" opacity="0.1"/>
  <rect x="428" y="502" width="140" height="10" rx="5" fill="#1a1a2e" opacity="0.1"/>
  <rect x="428" y="522" width="155" height="10" rx="5" fill="#1a1a2e" opacity="0.1"/>

  <!-- Green checkmark circle at bottom of shield -->
  <circle cx="512" cy="680" r="52" fill="#4CAF50"/>
  <polyline points="488,680 506,698 540,664"
            fill="none" stroke="#ffffff" stroke-width="16"
            stroke-linecap="round" stroke-linejoin="round"/>
</svg>
