<svg xmlns="http://www.w3.org/2000/svg" viewBox="0 0 1024 1024" width="1024" height="1024">
  <!-- Background -->
  <rect width="1024" height="1024" rx="180" fill="#1a1a2e"/>

  <!-- Document base -->
  <rect x="272" y="180" width="360" height="460" rx="24" fill="#ffffff" opacity="0.95"/>

  <!-- Document fold corner -->
  <polygon points="552,180 632,260 552,260" fill="#c8cfe0"/>

  <!-- Document lines representing data rows -->
  <rect x="312" y="290" width="200" height="18" rx="9" fill="#1a1a2e" opacity="0.20"/>
  <rect x="312" y="328" width="240" height="14" rx="7" fill="#1a1a2e" opacity="0.12"/>
  <rect x="312" y="356" width="180" height="14" rx="7" fill="#1a1a2e" opacity="0.12"/>
  <rect x="312" y="400" width="240" height="14" rx="7" fill="#1a1a2e" opacity="0.12"/>
  <rect x="312" y="428" width="160" height="14" rx="7" fill="#1a1a2e" opacity="0.12"/>
  <rect x="312" y="472" width="240" height="14" rx="7" fill="#1a1a2e" opacity="0.12"/>
  <rect x="312" y="500" width="200" height="14" rx="7" fill="#1a1a2e" opacity="0.12"/>

  <!-- Shield overlapping document bottom-right -->
  <path d="M512 490 L648 542 L648 648 Q648 736 512 790 Q376 736 376 648 L376 542 Z" fill="#4CAF50"/>
  <path d="M512 514 L628 560 L628 650 Q628 724 512 772 Q396 724 396 650 L396 560 Z" fill="#388E3C"/>

  <!-- Checkmark inside shield -->
  <polyline
    points="450,644 494,690 576,594"
    fill="none"
    stroke="#ffffff"
    stroke-width="34"
    stroke-linecap="round"
    stroke-linejoin="round"/>
</svg>
